# xmcd
#
# Track frame offsets:
# 150
# 31041
# 60488
# 102904
# 115780
# 126392
# 136525
# 154362
#
# Disc length: 2161 seconds
#
#
# Revision: 0
# Processed by: cddbd v1.5.2PL0 Copyright (c) Steve Scherf et al.
# Submitted via: FreeRIP 2.944 
#
DISCID=60086f08
DTITLE=Nina Simone - Hidden Treasures
DYEAR=2006
DGENRE=
TTITLE0=Exactly Like You
TTITLE1=Youve Got to Learn
TTITLE2=Why (The King of Love is Dead)
TTITLE3=Im Giving it Up
TTITLE4=It Dont Mean a Thing
TTITLE5=The Time is Now
TTITLE6=I Got it Bad and That Aint Good
TTITLE7=Jesus Paid it All
EXTD=
EXTT0=
EXTT1=
EXTT2=
EXTT3=
EXTT4=
EXTT5=
EXTT6=
EXTT7=
PLAYORDER=
